<?xml version="1.0" encoding="utf-8"?>
<!-- Generator: Adobe Illustrator 20.1.0, SVG Export Plug-In . SVG Version: 6.00 Build 0)  -->
<svg version="1.1" id="Layer_1" xmlns="http://www.w3.org/2000/svg" xmlns:xlink="http://www.w3.org/1999/xlink" x="0px" y="0px"
	 viewBox="0 0 94 94" style="enable-background:new 0 0 94 94;" xml:space="preserve">
<style type="text/css">
	.st0{fill:#000000;}
</style>
<title>question</title>
<path class="st0" d="M47,0C21,0,0,21,0,47s21,47,47,47s47-21,47-47S73,0,47,0z M46.4,77.9c-3,0-5.4-2.4-5.4-5.4c0-3,2.4-5.4,5.4-5.4
	c3,0,5.4,2.4,5.4,5.4l0,0l0,0C51.7,75.5,49.3,77.9,46.4,77.9z M52.2,51.8c0,0-0.5,0.2-0.5,0.5v4.3c0,3-2.4,5.4-5.4,5.4
	S41,59.5,41,56.6l0,0v-4.3c0-4.9,3.2-9.1,7.8-10.6c3.2-1.1,5.3-4.1,5.2-7.5c-0.2-4.1-3.6-7.3-7.7-7.4c-2.9,0-5.6,1.7-6.8,4.3
	c-1.4,2.6-4.6,3.6-7.2,2.2c-2.5-1.3-3.5-4.3-2.4-6.9c3-6.3,9.4-10.3,16.4-10.4h0.1c9.9,0.1,18,7.9,18.4,17.8
	C65,41.9,59.9,49.2,52.2,51.8L52.2,51.8z"/>
</svg>
