
<svg xmlns="http://www.w3.org/2000/svg" version="1.1" xmlns:xlink="http://www.w3.org/1999/xlink" xmlns:svgjs="http://svgjs.com/svgjs" height="190.81045837402343" width="270.6200256347656"><defs id="SvgjsDefs1374"></defs><g id="SvgjsG1375" rel="mainfill" name="main_text" xmlns:name="main_text" transform="translate(-1.5499999523162842,-96.38953857421876)" fill="#3498DB"><path d="M1.55 187.62Q1.55 195.62 2.70 202.91Q3.85 210.21 6.27 216.76Q8.69 223.30 12.41 229.08Q16.14 234.85 21.29 239.81Q22.28 240.50 23.34 240.50Q24.39 240.50 25.08 239.81Q32.34 232.43 35.87 222.81Q39.41 213.19 39.47 201.08Q38.23 200.03 37.05 200.03Q35.69 200.03 34.57 201.46Q34.57 201.64 34.70 202.14Q34.82 202.64 34.94 203.19Q35.07 203.75 35.19 204.34Q35.32 204.93 35.32 205.30Q35.32 207.54 34.51 210.21Q33.70 212.88 32.43 215.58Q31.16 218.28 29.70 220.82Q28.24 223.37 26.91 225.32Q25.57 227.28 24.58 228.46Q23.59 229.63 23.34 229.63Q22.10 229.63 20.14 227.34Q18.19 225.04 15.73 220.29Q13.28 215.55 10.46 208.28Q7.63 201.02 4.72 191.15Q4.53 190.47 4.34 189.73Q4.16 188.98 3.88 188.39Q3.60 187.80 3.20 187.40Q2.79 186.99 2.11 186.99L1.55 187.62ZM42.58 232.43Q42.58 233.67 42.76 235.00Q42.95 236.34 43.48 237.46Q44.01 238.57 45.00 239.29Q45.99 240 47.67 240Q49.22 240 51.05 238.54Q52.88 237.08 54.99 233.92L55.30 234.97Q55.43 235.78 55.49 236.56Q55.55 237.33 55.55 238.08Q55.55 239.07 56.05 239.66Q56.54 240.25 57.54 240.25Q59.34 240.25 59.34 238.01Q59.34 235.97 59.12 234.29Q58.90 232.61 58.53 231.03Q58.16 229.45 57.60 227.87Q57.04 226.28 56.36 224.42Q55.98 223.06 55.49 223.06Q55.12 223.06 54.74 223.77Q54.37 224.48 53.87 225.72Q53.19 228.27 52.66 230.19Q52.14 232.12 51.58 233.45Q51.02 234.79 50.31 235.47Q49.59 236.15 48.47 236.15Q47.42 236.15 46.98 235.62Q46.55 235.10 46.55 233.73Q46.55 230.75 46.92 228.61Q47.30 226.47 47.82 224.92Q48.35 223.37 48.82 222.37Q49.28 221.38 49.47 220.70Q49.28 219.58 48.66 219.58Q48.35 219.58 47.92 219.89Q42.58 225.85 42.58 232.43ZM62.44 226.16L64.86 227.77Q66.04 226.97 67.59 226.47Q67.53 227.15 67.53 227.90Q67.53 228.58 67.53 229.26Q67.53 231.43 67.65 233.39Q67.78 235.34 68.03 236.80Q68.27 238.26 68.68 239.13Q69.08 240 69.70 240L71.81 238.45Q71.81 236.83 71.78 234.82Q71.75 232.80 71.72 230.88Q71.69 228.95 71.69 227.52Q71.69 226.03 71.69 225.54Q73.30 224.30 77.71 223.65Q82.12 222.99 88.20 222.93L93.47 222.56L94.16 221.88Q94.16 222.75 94.13 224.73Q94.09 226.72 94.06 229.17Q94.03 231.62 93.97 234.29Q93.91 236.96 93.91 239.07Q93.91 239.44 94.75 239.91Q95.58 240.37 96.58 240.37Q97.07 240.37 97.51 240.06Q97.94 239.75 97.94 239.44Q97.94 238.51 97.85 237.18Q97.76 235.84 97.76 234.66Q97.76 232.18 97.85 228.67Q97.94 225.17 98.10 221.35Q98.25 217.53 98.44 213.71Q98.62 209.90 98.78 206.79Q98.94 203.69 99.06 201.61Q99.18 199.53 99.18 199.16Q99.18 198.79 98.87 198.17Q98.56 197.55 98.44 197.55Q97.88 197.55 97.10 197.70Q96.33 197.86 95.61 198.07Q94.90 198.29 94.40 198.57Q93.91 198.85 93.91 199.10Q94.09 200.09 94.22 200.99Q94.34 201.89 94.34 203.38Q94.34 207.60 94.28 211.73Q94.22 215.86 94.16 220.08Q91.80 220.01 90.96 219.98Q90.12 219.95 89.69 219.95Q88.26 219.95 85.84 220.08Q83.42 220.20 80.75 220.39Q78.08 220.57 75.60 220.79Q73.12 221.01 71.63 221.19Q71.63 218.59 71.75 215.58Q71.87 212.57 72.06 209.65Q72.25 206.73 72.59 204.16Q72.93 201.58 73.43 199.90Q73.43 199.53 73.27 199.07Q73.12 198.60 72.84 198.17Q72.56 197.73 72.25 197.42Q71.94 197.11 71.69 197.11Q70.57 197.11 69.76 197.45Q68.96 197.79 68.43 198.23Q67.90 198.66 67.62 199.13Q67.34 199.59 67.34 199.78Q67.34 200.71 67.56 201.67Q67.78 202.64 67.78 202.95Q67.72 219.08 67.59 221.69Q65.42 221.69 63.93 223.02Q62.44 224.36 62.44 226.16ZM102.29 232.43Q102.29 233.67 102.47 235.00Q102.66 236.34 103.19 237.46Q103.71 238.57 104.71 239.29Q105.70 240 107.38 240Q108.93 240 110.76 238.54Q112.59 237.08 114.70 233.92L115.01 234.97Q115.13 235.78 115.20 236.56Q115.26 237.33 115.26 238.08Q115.26 239.07 115.76 239.66Q116.25 240.25 117.25 240.25Q119.05 240.25 119.05 238.01Q119.05 235.97 118.83 234.29Q118.61 232.61 118.24 231.03Q117.87 229.45 117.31 227.87Q116.75 226.28 116.07 224.42Q115.69 223.06 115.20 223.06Q114.82 223.06 114.45 223.77Q114.08 224.48 113.58 225.72Q112.90 228.27 112.37 230.19Q111.85 232.12 111.29 233.45Q110.73 234.79 110.01 235.47Q109.30 236.15 108.18 236.15Q107.13 236.15 106.69 235.62Q106.26 235.10 106.26 233.73Q106.26 230.75 106.63 228.61Q107.00 226.47 107.53 224.92Q108.06 223.37 108.52 222.37Q108.99 221.38 109.18 220.70Q108.99 219.58 108.37 219.58Q108.06 219.58 107.62 219.89Q102.29 225.85 102.29 232.43ZM124.76 232.37Q124.76 234.60 125.75 236.59Q124.88 238.39 124.23 240.25Q123.58 242.11 123.11 243.88Q122.65 245.65 122.40 247.17Q122.15 248.69 122.15 249.81Q122.15 251.85 122.99 253.50Q123.82 255.14 125.56 255.14Q125.62 252.04 125.97 249.68Q126.31 247.32 126.87 245.56Q127.42 243.79 128.14 242.51Q128.85 241.24 129.60 240.31L130.28 240Q132.70 240 134.90 239.19Q137.11 238.39 138.81 237.02Q140.52 235.66 141.54 233.86Q142.57 232.06 142.57 230.07Q142.57 228.89 142.51 227.68Q142.44 226.47 142.10 225.41Q141.76 224.36 141.11 223.52Q140.46 222.68 139.28 222.25Q138.53 222.25 137.26 223.27Q135.99 224.30 134.44 225.82Q132.89 227.34 131.24 229.20Q129.60 231.06 128.17 232.74Q127.80 232.74 127.80 231.56Q127.80 229.88 128.51 228.36Q129.22 226.84 130.09 225.63Q130.96 224.42 131.68 223.58Q132.39 222.75 132.39 222.43Q132.39 221.44 132.14 220.98Q131.89 220.51 131.21 220.51Q130.22 220.51 129.07 221.78Q127.92 223.06 126.96 224.89Q126.00 226.72 125.38 228.77Q124.76 230.81 124.76 232.37M139.96 227.40Q139.96 229.01 139.34 230.38Q138.72 231.75 137.67 232.80Q136.61 233.86 135.24 234.48Q133.88 235.10 132.39 235.22Q134.19 231.56 135.80 229.42Q137.42 227.28 139.22 225.97Q139.53 225.97 139.74 226.44Q139.96 226.90 139.96 227.40ZM146.91 228.77Q146.91 229.51 146.98 230.41Q147.04 231.31 147.04 231.68Q145.67 234.04 145.67 235.90Q145.67 236.65 145.89 237.42Q146.11 238.20 146.54 238.85Q146.98 239.50 147.50 239.94Q148.03 240.37 148.71 240.37Q150.20 240.37 151.94 240.03Q153.68 239.69 155.23 239.13Q156.78 238.57 157.81 237.89Q158.83 237.21 158.83 236.59Q158.83 235.53 158.27 234.88Q157.71 234.23 156.72 234.23Q156.10 234.23 155.14 234.38Q154.18 234.54 153.21 234.72Q152.25 234.91 151.38 235.07Q150.51 235.22 150.02 235.22Q150.64 233.48 150.82 232.89Q151.01 232.30 151.07 231.99L151.63 231.62Q153.24 231.62 154.27 231.59Q155.29 231.56 155.94 231.50Q156.60 231.43 156.97 231.37Q157.34 231.31 157.65 231.19Q158.27 230.75 158.27 229.63Q158.27 229.01 157.53 228.67Q156.78 228.33 155.85 228.33L153.93 228.33Q153.12 228.27 152.56 227.90Q153.00 226.28 153.31 225.72L153.62 225.60Q153.80 225.60 154.67 225.57Q155.54 225.54 156.10 225.54Q159.02 225.54 160.20 225.20Q161.38 224.86 161.38 224.61Q161.38 223.30 160.20 222.22Q159.02 221.13 157.65 221.13Q155.66 221.13 153.65 221.32Q151.63 221.50 150.05 221.78Q148.47 222.06 147.47 222.34Q146.48 222.62 146.48 222.81Q146.48 223.61 147.41 224.36Q148.34 225.10 149.58 225.41L148.28 228.46Q147.91 228.52 147.57 228.58Q147.22 228.64 146.91 228.77ZM173.91 220.82Q174.35 222.06 174.78 223.52Q175.22 224.98 175.59 226.53Q175.96 228.08 176.21 229.60Q176.46 231.12 176.46 232.43Q176.46 233.36 176.27 234.29Q174.91 232.74 173.76 230.85Q172.61 228.95 171.62 227.34Q170.62 225.72 169.72 224.64Q168.82 223.55 167.95 223.55Q167.40 224.23 166.77 226.19Q166.15 228.15 165.66 230.44Q165.16 232.74 164.82 234.91Q164.48 237.08 164.48 238.20Q164.48 239.07 164.85 239.72Q165.22 240.37 166.09 240.37Q167.15 240.37 167.77 239.38Q168.39 238.39 168.39 236.83Q168.39 235.72 168.39 234.41Q168.39 233.11 168.45 232.06Q168.51 231.00 168.64 230.29Q168.76 229.57 169.01 229.57Q169.51 230.75 170.50 232.43Q171.49 234.10 172.58 235.69Q173.66 237.27 174.66 238.39Q175.65 239.50 176.15 239.50Q177.39 239.50 178.23 238.82Q179.06 238.14 179.53 237.08Q180.00 236.03 180.18 234.72Q180.37 233.42 180.37 232.18Q180.37 224.67 175.28 219.58Q174.29 219.58 174.10 220.05Q173.91 220.51 173.91 220.82ZM189.37 196.06Q188.87 196.86 188.22 199.41Q187.57 201.95 186.92 205.34Q186.26 208.72 185.64 212.54Q185.02 216.35 184.53 219.67Q184.03 222.99 183.75 225.35Q183.47 227.71 183.47 228.27Q183.47 230.63 183.69 232.61Q183.91 234.60 184.28 236.06Q184.65 237.52 185.15 238.36Q185.64 239.19 186.20 239.19Q186.76 239.19 187.26 238.26Q187.75 237.33 188.16 235.75Q188.56 234.17 188.87 232.06Q189.18 229.95 189.37 227.52Q189.74 222.93 189.99 220.23Q190.24 217.53 190.39 215.98Q190.55 214.43 190.67 213.78Q190.79 213.12 190.86 212.63Q191.35 210.58 191.69 209.90Q192.04 209.21 192.41 209.21Q193.15 209.21 194.08 211.64Q195.39 215.73 196.29 218.65Q197.19 221.57 197.87 223.68Q198.55 225.79 199.05 227.28Q199.55 228.77 199.98 229.95Q200.42 231.12 200.82 232.18Q201.22 233.23 201.78 234.48Q203.21 237.70 204.23 239.10Q205.26 240.50 206.13 240.50Q206.81 240.50 207.30 239.81Q207.80 239.13 208.08 238.17Q208.36 237.21 208.52 236.24Q208.67 235.28 208.73 234.72Q209.29 228.89 209.73 225.01Q210.16 221.13 210.47 218.68Q210.78 216.23 210.97 214.96Q211.15 213.68 211.22 213.12Q211.84 210.15 212.70 210.15Q213.33 210.15 214.01 211.57Q216.24 221.01 217.98 227.65Q219.72 234.29 221.30 238.70Q222.88 243.10 224.44 245.43Q225.99 247.76 227.97 248.50Q230.33 249.43 231.79 249.87Q233.25 250.30 233.87 250.30Q234.30 250.30 234.30 250.05Q234.30 249.81 233.99 249.50Q231.20 245.77 229.49 243.26Q227.79 240.74 226.73 239.01Q225.68 237.27 225.18 236.09Q224.68 234.91 224.31 233.79Q222.14 227.09 220.49 221.22Q218.85 215.36 217.64 210.89Q216.43 206.42 215.68 203.57Q214.94 200.71 214.69 199.97Q213.82 197.48 212.89 196.46Q211.96 195.44 211.28 195.44Q208.61 195.44 206.99 205.43Q206.37 211.64 205.85 215.42Q205.32 219.21 204.92 221.29Q204.51 223.37 204.23 224.08Q203.95 224.79 203.83 224.79Q203.52 224.79 203.21 223.74Q202.90 222.68 202.22 220.70Q200.79 216.17 199.39 211.88Q197.99 207.60 196.72 204.16Q195.45 200.71 194.43 198.48Q193.40 196.24 192.72 195.75Q191.91 194.75 191.04 194.75Q190.11 194.75 189.37 196.06ZM245.72 220.70Q245.72 221.32 245.29 221.75Q244.05 223.49 243.27 224.67Q242.50 225.85 241.88 226.81Q241.26 227.77 240.73 228.73Q240.20 229.70 239.52 231.00L239.02 231.00Q238.21 231.00 237.59 231.19L237.59 231.87Q238.46 232.55 238.71 233.48Q237.41 235.84 237.41 237.52Q237.41 238.57 237.87 239.47Q238.34 240.37 239.46 240.37Q240.26 240.37 240.73 239.66Q241.19 238.94 241.26 238.63Q241.32 238.20 241.38 237.55Q241.44 236.90 241.63 236.28Q241.81 235.66 242.09 235.25Q242.37 234.85 242.81 234.85L247.21 234.85L247.40 235.10L247.65 238.01Q248.02 239.07 248.64 239.41Q249.26 239.75 250.13 239.75Q250.44 239.75 250.53 239.26Q250.63 238.76 250.63 238.39Q250.63 234.48 250.29 231.16Q249.95 227.83 249.45 225.41Q248.95 222.99 248.36 221.63Q247.77 220.26 247.21 220.26Q246.47 220.26 246.16 220.36Q245.85 220.45 245.72 220.70M244.36 230.75Q244.86 229.32 245.26 228.42Q245.66 227.52 246.22 226.84Q246.72 227.71 246.87 228.73Q247.03 229.76 247.03 230.69Q246.28 230.88 245.60 230.88Q245.29 230.88 244.98 230.85Q244.67 230.81 244.36 230.75ZM253.73 213.12Q253.73 214.86 254.97 216.48Q254.91 216.66 254.91 216.91Q254.91 217.10 254.91 217.28Q254.91 218.71 256.09 219.64Q257.46 219.64 257.89 218.28Q258.94 218.52 259.63 218.59Q260.31 218.65 260.99 218.65Q262.48 218.65 264.44 217.94Q266.39 217.22 268.10 216.01Q269.81 214.80 270.99 213.22Q272.17 211.64 272.17 209.96Q272.17 206.98 269.00 206.61Q267.39 204.62 264.34 204.62Q262.67 204.62 260.78 205.30Q258.88 205.99 257.33 207.14Q255.78 208.28 254.76 209.84Q253.73 211.39 253.73 213.12M259.01 222.37Q259.01 222.87 258.88 224.64Q258.76 226.41 258.57 228.77Q258.39 231.12 258.26 233.76Q258.14 236.40 258.14 238.57Q258.26 239.44 259.01 239.75Q259.75 240.06 260.56 240.06Q261.43 240.06 261.83 239.78Q262.23 239.50 262.23 238.57Q262.23 236.65 262.14 233.98Q262.05 231.31 261.96 228.83Q261.86 226.35 261.74 224.55Q261.61 222.75 261.55 222.62Q260.56 221.63 259.32 221.63Q259.19 221.88 259.13 222.06Q259.07 222.25 259.01 222.37M259.88 215.11Q263.10 210.21 268.07 208.97Q268.44 208.97 268.94 209.25Q269.43 209.52 269.43 210.21Q268.32 212.88 266.05 214.06Q263.79 215.24 261.37 215.24Q260.99 215.24 260.62 215.24Q260.25 215.24 259.88 215.11M256.71 213.00Q256.96 209.84 260.68 208.53Q260.87 208.53 260.87 208.59L256.71 213.00Z" fill="#3498DB" style="fill: rgb(52, 152, 219);"></path></g><g id="SvgjsG1376" rel="mainfill" name="slogan_text" xmlns:name="slogan_text" transform="translate(55.435005486011505,-54.84954528808595)" fill="#3498DB"><path d="M0.46 239.88C0.43 239.91 0.43 239.97 0.43 240L2.46 240C3.05 238 3.66 235.97 4.25 233.94L10.49 233.94C11.08 235.97 11.66 238 12.25 240L14.31 240L14.03 239.08C12.58 233.60 10.89 229.35 8.43 224.40L6.28 224.40C6.00 224.95 3.32 230.40 2.18 233.88C1.57 235.75 1.08 237.72 0.46 239.88ZM4.80 232.31C5.75 230.03 6.52 228.06 7.32 226.49C7.35 226.49 7.35 226.49 7.38 226.52C8.09 227.88 8.77 229.54 9.57 231.42C9.57 231.60 9.75 232.03 9.88 232.28L9.88 232.31ZM15.38 223.60L15.38 238.80C15.42 239.20 15.48 239.60 15.54 240L19.29 240C22.89 240 24.68 236.95 24.68 234.25L24.68 233.57C24.68 230.65 23.51 228.49 20.37 228.49C19.26 228.49 17.97 228.86 17.38 229.94L17.38 223.60ZM20.15 230.15C22.31 230.15 22.65 231.63 22.65 233.48C22.65 234.74 22.49 238.37 18.98 238.37C18.46 238.37 17.91 238.40 17.38 238.40L17.38 232.92C17.38 231.29 18.71 230.15 20.15 230.15ZM26.43 236.43C26.43 238.65 28.12 240.31 31.17 240.31C34.31 240.31 36.12 238.89 36.12 236.43L36.12 233.08C36.12 230.83 34.77 228.58 31.32 228.58C28.34 228.58 26.43 230 26.43 233.02ZM31.32 230.18L31.66 230.18C33.35 230.18 34.00 231.60 34.09 232.92L34.09 236.18C34.09 237.88 33.08 238.74 31.32 238.74C29.66 238.74 28.49 237.82 28.49 236.22L28.49 233.32C28.49 231.08 29.54 230.18 31.32 230.18ZM37.78 234.83C37.78 238.31 40.06 240 42.89 240L46.74 240C46.80 239.57 46.86 239.14 46.89 238.68L46.89 228.92L44.92 228.92L44.92 238.34C44.55 238.34 43.48 238.37 43.11 238.37C41.32 238.37 39.82 237.11 39.82 234.74L39.82 228.89L37.78 228.89ZM50.12 236.77C50.12 238.74 51.14 239.88 52.86 240.74C53.20 240.25 53.63 239.60 53.88 239.20C52.95 238.52 52.15 238.03 52.15 236.89L52.15 230.49L54.22 230.49L54.22 228.92L52.12 228.92L52.12 223.60L50.12 223.60L50.12 228.92L48.25 228.92L48.25 230.49L50.12 230.49ZM62.92 235.11C63.08 237.57 64.37 240.31 67.60 240.31C69.48 240.31 70.77 239.78 71.66 238.09C71.38 237.94 70.80 237.45 70.40 237.17C69.63 238.31 69.14 238.71 67.88 238.71C66.09 238.71 64.92 237.29 64.92 235.29L68.18 235.29C70.77 235.29 72.12 233.94 72.12 232.43C72.12 230.12 70.09 228.55 67.75 228.55C64.62 228.55 62.89 230.77 62.89 234.25C62.89 234.55 62.89 234.86 62.92 235.11ZM67.75 230.18C68.98 230.18 70.28 230.89 70.28 232.28C70.28 233.08 69.38 233.88 67.51 233.88L64.92 233.88C64.92 231.45 65.63 230.31 67.75 230.18ZM73.20 228.92C73.32 229.66 74.00 232.12 74.18 232.80C74.86 235.29 76.34 238.80 77.20 240L79.54 240C79.91 239.45 79.82 239.38 80.55 238.18C82.15 234.95 83.26 230.31 83.69 228.92L81.63 228.95C80.55 232.62 79.97 234.31 78.37 237.82C77.51 236.34 76.80 234.40 76.22 232.52C75.91 231.54 75.38 229.45 75.20 228.92ZM84.58 235.11C84.74 237.57 86.03 240.31 89.26 240.31C91.14 240.31 92.43 239.78 93.32 238.09C93.05 237.94 92.46 237.45 92.06 237.17C91.29 238.31 90.80 238.71 89.54 238.71C87.75 238.71 86.58 237.29 86.58 235.29L89.85 235.29C92.43 235.29 93.78 233.94 93.78 232.43C93.78 230.12 91.75 228.55 89.42 228.55C86.28 228.55 84.55 230.77 84.55 234.25C84.55 234.55 84.55 234.86 84.58 235.11ZM89.42 230.18C90.65 230.18 91.94 230.89 91.94 232.28C91.94 233.08 91.05 233.88 89.17 233.88L86.58 233.88C86.58 231.45 87.29 230.31 89.42 230.18ZM95.85 228.92L95.85 240L97.85 240L97.85 235.20C97.85 232.09 99.60 230.43 101.82 230.43C102.86 230.43 103.63 230.80 103.63 230.80C103.75 230.25 103.91 229.72 104.06 229.17C104.03 229.17 103.26 228.77 101.85 228.77C100.40 228.77 98.62 229.42 97.82 230.71L97.82 228.92ZM102.98 243.97L102.98 245.66C106.58 245.66 108.18 243.66 110.00 240.40C111.88 237.02 113.26 233.48 114.37 228.92L112.37 228.92C111.26 232.65 110.43 235.29 109.08 237.94C107.57 235.20 106.74 231.85 106.03 228.92L104.00 228.92C104.68 233.05 106.12 236.83 107.88 240.15C106.86 242.03 105.42 243.97 102.98 243.97ZM116.65 236.77C116.65 238.74 117.66 239.88 119.38 240.74C119.72 240.25 120.15 239.60 120.40 239.20C119.48 238.52 118.68 238.03 118.68 236.89L118.68 230.49L120.74 230.49L120.74 228.92L118.65 228.92L118.65 223.60L116.65 223.60L116.65 228.92L114.77 228.92L114.77 230.49L116.65 230.49ZM126.98 230.06C129.02 230.06 129.66 232 129.66 233.54L129.66 240L131.66 240C131.66 238.83 131.66 234.15 131.66 233.23C131.66 230.18 129.57 228.68 127.35 228.62C126.15 228.62 124.92 229.02 124.03 230.15L124.03 223.63L122.06 223.63C122.03 226.28 122.03 237.35 122.06 240L124.03 240L124.03 232.80C124.03 231.72 125.32 230.06 126.98 230.06ZM133.45 229.02L133.45 240L135.38 240L135.38 229.02ZM133.23 226.22L133.26 226.62C133.48 227.17 133.91 227.42 134.43 227.42L134.77 227.42C135.26 227.42 135.69 226.77 135.69 226.25L135.69 226.03C135.66 225.60 135.26 225.14 134.80 225.05L134.40 225.05C133.91 225.05 133.23 225.51 133.23 225.91ZM137.78 228.92L137.78 240L139.78 240L139.78 233.57C139.78 232.34 140.52 230.09 142.55 230.09C143.82 230.09 145.05 231.45 145.05 233.26L145.05 240L147.05 240L147.05 232.98C147.05 230.43 145.08 228.68 142.68 228.68C141.69 228.68 140.58 229.08 139.78 230.12L139.78 228.92ZM149.54 243.23C149.35 243.75 149.11 244.28 148.92 244.80C149.69 245.26 150.40 245.57 151.97 245.57L155.14 245.57C157.57 245.57 159.17 244.22 159.17 242.03C159.17 239.42 156.98 238.31 154.46 238.31C154.09 238.31 153.66 238.31 153.23 238.31C152.15 238.31 151.08 238.22 151.08 237.54C151.08 237.08 151.51 236.62 151.69 236.40C152.34 236.62 153.05 236.68 153.66 236.68C156.89 236.68 158.52 235.26 158.52 232.65C158.52 232.03 158.43 231.23 157.94 230.58C157.91 230.62 158.25 230.43 159.32 230.43L159.32 228.89C157.94 228.89 157.05 229.02 156.71 229.26C155.97 228.89 154.65 228.62 153.48 228.62C150.49 228.62 148.86 230.09 148.86 232.77C148.86 233.88 149.20 234.74 150.06 235.57C150.18 235.69 150.34 235.78 150.34 235.78C149.94 236.09 149.29 236.68 149.29 237.60C149.29 238.77 150.15 240 151.97 240L154.62 240C156.09 240 157.32 240.62 157.32 242.06C157.32 243.14 156.31 243.88 155.17 243.88L151.88 243.88C150.83 243.88 150.12 243.60 149.54 243.23ZM150.89 232.86C150.89 231.78 151.11 230.22 153.51 230.22C155.26 230.22 156.49 230.62 156.49 232.68C156.49 234.71 155.23 235.05 153.63 235.05C152.03 235.05 150.89 234.31 150.89 232.86Z" fill="#3498DB" style="fill: rgb(52, 152, 219);"></path></g><g id="SvgjsG1377" rel="mainfill" name="symbol" xmlns:name="symbol_mainfill" transform="translate(90.72829666137694,-7.9897264480590895) scale(0.9)" fill="#3498DB"><g fill="#3498DB"><circle cx="50.498" cy="50.049" r="0.776"></circle><path d="M53.471,70.144c0.427,0,0.775-0.346,0.775-0.777c0-0.425-0.349-0.77-0.775-0.77c-0.429,0-0.771,0.345-0.771,0.77   C52.699,69.798,53.042,70.144,53.471,70.144z" fill="#3498DB" style="fill: rgb(52, 152, 219);"></path><path d="M53.604,76.583c0.425,0,0.771-0.346,0.771-0.777c0-0.425-0.347-0.77-0.771-0.77c-0.432,0-0.776,0.345-0.776,0.77   C52.827,76.237,53.172,76.583,53.604,76.583z" fill="#3498DB" style="fill: rgb(52, 152, 219);"></path><path d="M53.729,81.764c-0.428,0-0.774,0.351-0.774,0.775c0,0.431,0.347,0.778,0.774,0.778s0.778-0.348,0.778-0.778   C54.508,82.114,54.157,81.764,53.729,81.764z" fill="#3498DB" style="fill: rgb(52, 152, 219);"></path><path d="M53.729,87.899c-0.428,0-0.774,0.354-0.774,0.783c0,0.426,0.347,0.771,0.774,0.771s0.778-0.345,0.778-0.771   C54.508,88.253,54.157,87.899,53.729,87.899z" fill="#3498DB" style="fill: rgb(52, 152, 219);"></path><path d="M53.155,22.558c0.468,0.088,0.947-1.72,1.778-1.785c0.832-0.069,1.833,0.696,2.067,1.199   c-0.175-0.646-1.227-1.558-2.067-1.469c-0.842,0.086-1.7,0.733-1.959,1.263C52.975,21.765,52.681,22.471,53.155,22.558z" fill="#3498DB" style="fill: rgb(52, 152, 219);"></path><path d="M50.108,31.167c0.422,0.237,1.191,0.619,1.739,0.354c0.55-0.266,0.894-0.615,1.034-0.783   c0.15-0.17,0.007-0.336-0.289-0.158c-0.558,0.352-1.793,0-2.414,0c-0.62,0-1.111-0.382-1.111-0.382   C49.302,30.551,49.686,30.933,50.108,31.167z" fill="#3498DB" style="fill: rgb(52, 152, 219);"></path><path d="M49.427,22.56l0.419-0.349c0.419-0.344-1.689-1.121-2.212-1.297c-0.525-0.178-1.387,0-2.384,0.234   c-1.003,0.233-1.267,0.558-1.267,0.558s0.558,0,2.085-0.325C47.597,21.059,49.427,22.56,49.427,22.56z" fill="#3498DB" style="fill: rgb(52, 152, 219);"></path><path d="M44.437,24.798l0.248,0.518c2.503-1.197,3.514,0.3,3.556,0.364l0.484-0.308C48.711,25.352,47.417,23.372,44.437,24.798z" fill="#3498DB" style="fill: rgb(52, 152, 219);"></path><path d="M53.347,24.941l0.346,0.458c1.929-1.457,2.987-0.133,3.03-0.077l0.459-0.346c-0.022-0.028-0.524-0.685-1.457-0.816   C54.974,24.053,54.171,24.318,53.347,24.941z" fill="#3498DB" style="fill: rgb(52, 152, 219);"></path><path d="M51.121,83.839c-0.009,0.047-0.011,0.096-0.02,0.142C51.102,83.98,51.111,83.925,51.121,83.839z" fill="#3498DB" style="fill: rgb(52, 152, 219);"></path><path d="M52.781,35.58c-0.082-0.021-0.213,0.005-0.224-0.124c0.063,0.009,0.129,0.019,0.215,0.027   c-0.052-0.04-0.083-0.064-0.118-0.091c0.087,0.014,0.175,0.026,0.266,0.04c0.012-0.028,0-0.054-0.015-0.08   c-0.006-0.032-0.016-0.071-0.029-0.119c0.004-0.011,0.004-0.021,0.018-0.033l-0.005-0.01c-0.014-0.004-0.019-0.013-0.03-0.018   c-0.085-0.256-0.283-0.661-0.738-1.033c0-0.004-0.008-0.004-0.008-0.009l-0.007-0.003c-0.172-0.203-0.403-0.265-0.672-0.216   c-0.18,0.035-0.355,0.032-0.513-0.075c-0.268-0.18-0.547-0.177-0.828-0.081l-0.014-0.007l-0.013,0.01   c-0.068-0.013-0.123,0.009-0.166,0.046v-0.003c-0.061,0-0.118,0.019-0.161,0.059c-0.017,0.005-0.041,0.015-0.059,0.027   c0,0.002-0.004,0.002-0.005,0.006c0.001-0.004,0.004-0.003,0.005-0.006l0,0c0-0.002,0.002-0.002,0.002-0.003   c-0.078,0.003-0.139,0.037-0.182,0.086c-0.01,0.023-0.028,0.037-0.058,0.03v-0.003c-0.005,0.06-0.028,0.097-0.066,0.118   c0.039-0.021,0.062-0.059,0.066-0.118c-0.091,0.022-0.164,0.068-0.218,0.136c0-0.002,0-0.002,0-0.003   c-0.078,0.028-0.144,0.075-0.182,0.136c0.068,0.016,0.111,0.005,0.139-0.02c-0.027,0.025-0.071,0.035-0.139,0.02h0.006   c-0.147,0.098-0.316,0.179-0.316,0.369c0.081,0.5,0.204,0.998,0.583,1.415c0.714,0.781,1.943,0.908,2.844,0.336   c0.007-0.004,0.01,0,0.018-0.004c0.414-0.208,0.789-0.652,0.789-0.652C52.975,35.615,52.876,35.604,52.781,35.58z M52.118,35.362   c-0.008,0.026-0.017,0.056-0.06,0.053c-0.038-0.005-0.036-0.041-0.036-0.067C52.055,35.354,52.09,35.357,52.118,35.362z    M49.224,34.135L49.224,34.135L49.224,34.135c0.022,0.002,0.035-0.007,0.054-0.007C49.259,34.128,49.247,34.137,49.224,34.135   c-0.001,0.006-0.005,0.009-0.006,0.015C49.219,34.144,49.223,34.141,49.224,34.135z M51.483,35.246   c0.103,0.006,0.199,0.021,0.289,0.067C51.67,35.341,51.552,35.397,51.483,35.246z" fill="#3498DB" style="fill: rgb(52, 152, 219);"></path><path d="M76.703,35.655c-0.094-0.268-0.313-0.435-0.604-0.458c-0.468-0.044-0.75,0.099-0.877,0.188   c-0.039-0.012-0.078-0.021-0.118-0.015c-0.19,0.022-0.373,0.062-0.554,0.11l0.11-2.088c0.026-0.518-0.372-0.96-0.889-0.987   l-7.13-0.374c-0.526-0.022-0.96,0.376-0.983,0.888l-0.207,3.949c-0.103-0.145-0.201-0.292-0.332-0.42   c-0.421-0.416-0.889-0.542-1.391-0.365c-0.001,0-0.001,0.001-0.002,0.001c-0.182,0.022-0.331,0.083-0.426,0.203   c-0.116,0.144-0.147,0.334-0.1,0.566c0.027,0.131,0.051,0.262,0.073,0.394c0.066,0.374,0.144,0.759,0.306,1.131   c-0.213,1.421-0.618,2.826-1.194,4.183c-1.634-5.253-2.356-21.178-4.814-27.45c-2.264-5.773-7.569-6.007-9.341-5.917   c-0.983-0.417-2.954-0.706-5.538,1.047c-3.354,2.276-5.96,3.274-8.376,13.327c-2.407,10.057-0.454,16.608-0.091,18.035   c0.364,1.433-1.054,3.829-2.29,4.565c-0.977,0.321-1.08,0.694-1.08,0.694s0.301-0.129,0.945-0.271   c-0.532,0.415-0.938,0.804-1.285,1.179l-4.959,1.606c-0.002,0.001-0.003,0.005-0.006,0.005c-0.175,0.014-0.346,0.042-0.504,0.111   l-0.062,0.038c-0.037,0.029-3.622,2.932-2.417,7.412c0.409,1.514,0.943,3.757,1.509,6.131c1.079,4.528,2.302,9.662,3.167,11.94   c0.121,0.317,0.27,0.612,0.469,0.93c0.314,1.187,0.67,2.241,1.059,3.151c-0.613,5.899-1.033,13.401-1.037,13.478l-0.017,0.306   l32.561-0.112l0.004,0.11h9.811l-0.058-0.336c-0.075-0.436-1.86-10.686-2.909-13.055c-0.504-1.138-0.662-4.388-0.663-8.251   c0.408-1.131,0.298-2.22,0.027-3.099c0.052-3.089,0.165-6.306,0.261-9.007l0.005-0.141c0.061-1.696-0.196-3.267-0.744-4.688   c0.068-0.035,0.132-0.083,0.207-0.113c2.027-0.812,3.721-1.804,5.176-3.029c0.292-0.248,0.663-0.389,1.055-0.54l0.166-0.063   c0.848-0.332,0.882-0.344,1.127-0.584c0.108-0.105,0.271-0.264,0.656-0.565c0.521-0.407,0.808-0.828,0.933-1.37   c0.015-0.055,0.009-0.112-0.01-0.165c-0.021-0.059,0.021-0.227,0.051-0.338c0.058-0.228,0.125-0.487-0.009-0.711   c-0.077-0.128-0.201-0.214-0.412-0.262c-0.353-0.033-0.686,0.064-0.993,0.273l0.025-0.479c0.18-0.07,0.381-0.142,0.629-0.22   c0.036-0.011,0.068-0.03,0.096-0.054c0.16-0.099,0.656-0.449,0.791-1.06c0.101-0.44,0.098-0.708-0.012-0.986   c-0.11-0.298-0.552-0.57-0.769-0.638c-0.045-0.014-0.091-0.016-0.136-0.009c-0.168,0.031-0.302,0.08-0.452,0.12l0.04-0.747   c0.117-0.048,0.227-0.111,0.347-0.152c0.03-0.011,0.059-0.027,0.085-0.047c0.183-0.146,0.62-0.547,0.753-1.119   c0.094-0.423,0.09-0.689-0.013-0.986c-0.084-0.221-0.462-0.687-0.773-0.695c-0.022-0.005-0.047-0.004-0.072-0.003   c-0.056,0.006-0.113,0.016-0.169,0.021l0.085-1.656c0.245-0.125,0.482-0.266,0.735-0.374c0.362-0.156,0.793-0.359,1.069-0.775   c0.018-0.011,0.04-0.008,0.056-0.022C76.666,36.588,76.844,36.053,76.703,35.655z M66.615,32.606l7.129,0.374   c0.199,0.01,0.352,0.183,0.343,0.384l-0.12,2.315c-0.271,0.106-0.534,0.224-0.792,0.343c-0.243,0.113-0.486,0.227-0.737,0.325   c-1.724,0.687-3.002,1.519-4.023,2.616c-0.432,0.466-0.93,0.851-1.458,1.26c-0.36,0.278-0.729,0.563-1.08,0.881l0.039-0.228   c0.103-0.592,0.21-1.205,0.188-1.838c-0.015-0.376-0.064-0.702-0.137-1.005l0.268-5.083C66.243,32.751,66.421,32.622,66.615,32.606   z M63.794,36.766c0.018,0.028,0.034,0.056,0.049,0.083c0.025,0.049,0.047,0.099,0.063,0.148c0.01,0.027,0.02,0.056,0.026,0.082   c0.013,0.055,0.021,0.106,0.027,0.157c0.002,0.021,0.006,0.043,0.008,0.064c0.004,0.07,0.003,0.138-0.004,0.199   c-0.005,0.074-0.003,0.156-0.001,0.242c0,0.005,0,0.011,0,0.017c-0.049-0.195-0.085-0.399-0.121-0.609   c-0.025-0.137-0.048-0.275-0.078-0.413c0-0.002,0-0.005,0-0.008C63.772,36.742,63.785,36.753,63.794,36.766z M48.623,46.9   c-0.15-0.918-0.449-1.735-0.81-2.486c0.705,0.278,1.352,0.471,1.895,0.565l-0.212,0.142l0.254,0.2L48.623,46.9z M47.318,45.28   c0.413,0.42,0.712,1.237,0.935,2.14l-0.803,1.127C47.557,47.581,47.549,46.5,47.318,45.28z M50.366,44.482   c-0.681,0-1.779-0.33-2.963-0.862c-0.528-0.951-1.108-1.807-1.527-2.653c2.042,1.035,2.065,2.01,2.798,2.948   c-1.164-2.604-1.801-2.593-1.483-2.516c0.322,0.078,0.939,0.753,1.361,1.488c-0.322-1.02-1.856-2.772-3.552-4.337   c0.499,0.254,1,0.473,1.462,0.673c0.534,0.23,1.04,0.448,1.41,0.671c0.749,0.454,1.543,0.675,2.423,0.675   c0.592,0,1.234-0.101,1.965-0.308c0.604-0.172,0.956-0.294,1.259-0.501c-0.112,0.238-0.211,0.484-0.289,0.742l-0.186-0.265   l-0.195,0.5c-0.66,1.704-1.439,2.885-2.472,3.746L50.366,44.482z M50.761,44.892c0.877-0.737,1.583-1.694,2.185-2.96   c-0.038,0.36-0.062,0.723-0.069,1.085c-0.146,1.684,0.026,3.175-0.308,3.57c-0.145,0.169-0.264,0.415-0.359,0.697l-1.666-2.059   l-0.013-0.01L50.761,44.892z M39.562,26.121c0.314-0.388,1.043-0.81,2.52-3.103c1.474-2.292,1.775-5.869,3.197-7.892   c0.641-0.911,1.783-1.239,2.847-1.326c0.703,0.073,1.449,0.22,2.23,0.454l0.052,0.017l0.054-0.005   c0.039-0.004,4.521-0.358,5.565,3.565c1.076,4.069,1.196,4.674,1.211,4.734c0.003,0.01,0.335,1.025,0.047,1.818l-0.039,0.104   l0.041,0.103c0.55,1.36,0.757,2.708,0.586,3.797c-0.145,0.916-0.199,2.082-0.232,2.779l-0.022,0.45   c-0.027,0.517-0.055,1.051-0.576,2.136c-0.526,1.109-1.123,2.365-2.465,3.976c-0.215,0.258-0.391,0.477-0.54,0.665   c-0.215,0.265-0.374,0.462-0.521,0.619c-0.316,0.345-0.516,0.442-1.413,0.698c-1.649,0.469-2.817,0.37-3.932-0.307   c-0.406-0.243-0.928-0.469-1.481-0.707c-1.306-0.562-2.932-1.263-3.853-2.589c-0.439-0.633-0.952-1.26-1.447-1.867   c-0.018-0.021-0.035-0.042-0.053-0.063c-0.904-1.794-1.52-3.709-1.763-4.566c-0.111-0.386-0.195-0.78-0.251-1.159   c0.028-0.808,0.098-1.606,0.215-2.295C39.548,26.145,39.553,26.129,39.562,26.121z M48.023,58.19   c-0.118-0.57-0.331-1.187-0.708-1.882c-0.592-1.321-0.767-4.337-0.308-5.702c0.081-0.236,0.144-0.502,0.21-0.764l0.01,0.004   l1.193-1.674c0.086,0.438,0.158,0.877,0.216,1.285c0.089-0.603,0.105-1.164,0.077-1.695l0.53-0.744   c0.086,0.334,0.377,0.587,0.737,0.587c0.432,0,0.775-0.349,0.775-0.777s-0.344-0.775-0.775-0.775c-0.02,0-0.038,0.01-0.058,0.012   l0.267-0.374L52.051,48c-0.127,1.127,0.156,2.707,1.297,4.49c0.344,0.536,0.615,1.113,0.859,1.707   c-0.012,0.009-0.023,0.016-0.035,0.023C52.743,55.104,50.524,56.507,48.023,58.19z M31.844,47.316   c0.001,0.007,0.003,0.015,0.005,0.023l-0.052,0.017C31.814,47.342,31.826,47.331,31.844,47.316z M30.712,48.311l1.248-0.404   c0.951,4.651,3.202,5.293,3.34,7.212c0.085,1.161-0.74,3.158-1.404,5.231l-1.804-4.266c-0.135-0.24-2.949-5.246-5.446-6.456   l3.201-1.038c-0.725,1.067-0.822,1.946-0.896,2.644C29.147,50.691,29.256,49.745,30.712,48.311z M28.221,75.674   c-0.189-0.295-0.329-0.57-0.44-0.864c-0.853-2.241-2.071-7.356-3.146-11.869c-0.567-2.379-1.103-4.625-1.513-6.147   c-1.062-3.947,1.84-6.498,2.19-6.788c0.107-0.042,0.222-0.063,0.368-0.067c1.909,0,4.914,4.639,5.896,6.399l4.843,11.454l0.3-0.274   c0.594-0.544,1.258-1.122,1.974-1.721c0.717-0.599,1.486-1.217,2.29-1.842c2.098-1.629,4.542-3.385,7.262-5.221   c2.535-1.708,4.786-3.132,6.229-4.025c0.685-0.424,1.229-0.755,1.591-0.973c-0.165,2.91,2.5,4.351,4.229,4.978l-0.002,0.009   c0.351,0.124,0.662,0.217,0.904,0.28l-1.1,1.085c-0.594,0.585-1.326,1.303-2.135,2.097c-0.135,0.129-0.261,0.256-0.4,0.392   c-0.404,0.396-0.821,0.806-1.26,1.234c-0.018,0.019-0.037,0.036-0.055,0.054c-0.356,0.349-0.734,0.719-1.109,1.084   c-0.29,0.284-0.58,0.569-0.879,0.859c-0.241,0.235-0.484,0.474-0.73,0.714c-0.408,0.398-0.822,0.802-1.239,1.209   c-0.196,0.19-0.392,0.381-0.59,0.573c-0.454,0.443-0.911,0.887-1.368,1.331c-0.178,0.171-0.354,0.344-0.53,0.513   c-0.625,0.609-1.249,1.213-1.859,1.801c-0.812,0.786-1.599,1.541-2.345,2.257c-0.028-0.008-0.043-0.034-0.075-0.034   c-0.151,0-0.239,0.101-0.288,0.185l-0.031-0.005c-0.029,0.106-0.051,0.171-0.065,0.206c-0.138,0.053-0.203,0.171-0.252,0.301   c-0.008,0.018-0.022,0.035-0.028,0.054l-0.829,0.79c-0.449,0.426-0.863,0.817-1.241,1.17c-1.132,1.064-1.94,1.801-2.409,2.198   c-0.378,0.32-0.817,0.588-1.304,0.794l-0.121,0.053l-0.04,0.126c-0.178,0.559-0.399,1.079-0.659,1.544   c-0.476,0.853-1.026,1.391-1.591,1.558c-0.026,0.007-0.051,0.017-0.097,0.035c-0.629,0.142-1.087,0.403-1.492,0.637   c-0.078,0.044-0.151,0.085-0.224,0.126c-0.041,0.022-0.082,0.043-0.121,0.062c-0.026,0.015-0.052,0.026-0.077,0.038   c-0.244,0.116-0.482,0.182-0.755,0.146c-0.011-0.002-0.022-0.004-0.034-0.007c-0.059-0.009-0.12-0.023-0.183-0.043   c-0.648-0.23-1.504-1.039-2.714-2.569c-0.027-0.034-0.052-0.063-0.079-0.1c-0.204-0.259-0.417-0.535-0.641-0.836   c-0.299-0.4-0.6-0.952-0.92-1.69c-0.394-0.908-0.753-1.98-1.071-3.186L28.221,75.674z M62.875,68.381   c-0.007,0.118-0.009,0.25-0.018,0.358c-0.022,0.283-0.052,0.536-0.09,0.751c-0.134,0.767-0.244,1.965-0.337,3.423   c-0.158-0.909-0.471-2.042-0.902-3.403c-0.667-2.103-0.109-2.336,0.403-4.191c0.255,0.592,0.514,0.932,0.604,1.332   c0.078,0.345,0.223,0.696,0.365,1.094c0,0.012,0,0.024,0,0.035C62.896,67.999,62.886,68.188,62.875,68.381z M63.146,71.093   c0.012-0.132,0.024-0.253,0.038-0.375c0.007-0.064,0.014-0.135,0.021-0.195c0.015-0.128,0.029-0.245,0.044-0.361   c0.006-0.046,0.012-0.098,0.017-0.14c-0.01,0.302-0.036,0.619-0.097,0.979c-0.021,0.109-0.025,0.2-0.042,0.302   C63.134,71.232,63.14,71.16,63.146,71.093z M28.659,92.296l-0.334,0.005c0.081-1.382,0.431-7.179,0.922-12.195   c0.006,0.012,0.014,0.022,0.02,0.035c0.064,0.118,0.127,0.228,0.191,0.333c0.023,0.038,0.046,0.082,0.069,0.119   c0.086,0.138,0.173,0.268,0.26,0.382c0.269,0.359,0.515,0.678,0.753,0.978c0.05,0.062,0.1,0.124,0.148,0.184   c0.213,0.266,0.417,0.508,0.607,0.727c0.014,0.018,0.03,0.036,0.045,0.054c0.202,0.229,0.391,0.432,0.57,0.611   c0.041,0.043,0.079,0.076,0.119,0.116c0.125,0.122,0.245,0.234,0.361,0.333c0.053,0.046,0.108,0.096,0.161,0.138   c0.096,0.078,0.188,0.145,0.278,0.208c0.101,0.07,0.196,0.131,0.287,0.181c0.058,0.033,0.118,0.067,0.173,0.094   c0.07,0.033,0.135,0.058,0.2,0.079c0.043,0.017,0.085,0.031,0.127,0.041c0.063,0.019,0.127,0.034,0.188,0.043   c0.035,0.005,0.069,0.008,0.103,0.011c0.047,0.005,0.097,0.014,0.143,0.014c0.488,0,0.888-0.229,1.312-0.472   c0.386-0.222,0.786-0.453,1.331-0.573c0.036-0.009,0.072-0.021,0.133-0.046c0.008-0.002,0.015-0.009,0.023-0.011   c0.336,0.914,0.949,1.738,1.604,2.526c0.099,0.747,0.162,1.509,0.165,2.115c0.205-0.575,0.26-1.103,0.248-1.622   c0.325,0.39,0.637,0.777,0.901,1.168c-0.127-0.658-0.39-1.255-0.684-1.813c0.31-1.14,0.024-2.721-0.456-3.99   c0.042-0.07,0.088-0.127,0.13-0.201c0.258-0.465,0.481-0.977,0.664-1.526c0.492-0.223,0.938-0.502,1.33-0.832   c0.618-0.524,1.769-1.586,3.484-3.211c0.003,0.062-0.003,0.142,0.004,0.193c0.17,1.184,1.212,3.358,2.502,4.437   c-1.017-1.323-1.074-1.523-1.671-3.012c-0.331-0.832-0.286-1.516-0.093-2.324l0.23-0.219c0.017,0.002,0.039,0.006,0.053,0.005   c0.131,0,0.212-0.066,0.269-0.161l0.024,0.002l0.076-0.232c0.303,2.022,1.556,4.078,1.844,4.631c0.371,0.7,0.739,0.804,1.195,2.549   c-0.161,1.239-0.445,2.768,0.667,3.982c-0.316-0.505-0.321-1.143-0.258-2.269c0.011,0.505,0.339,1.651,1.224,2.975   c-1.459-3.038,0.568-3.399,0.351-4.911c0.521,0.784,0.503,1.585,0.471,1.897c0.263-1.596-0.614-3.461-1.317-4.643   c0.259,0.323,0.587,0.695,1.021,1.119c-2.194-2.613-2.603-5.39-2.603-5.39s0.15,0.683,1.118,1.682   c-0.624-0.964-1.398-2.233-1.245-4.012c0.083-0.08,0.162-0.155,0.244-0.235c0.611-0.59,1.232-1.192,1.858-1.799   c0.178-0.174,0.355-0.345,0.534-0.518c0.457-0.445,0.912-0.887,1.369-1.331c0.195-0.19,0.386-0.378,0.58-0.566   c0.424-0.413,0.84-0.817,1.254-1.223c0.24-0.234,0.477-0.463,0.712-0.695c0.306-0.298,0.604-0.59,0.902-0.879   c0.099-0.098,0.201-0.199,0.299-0.295c-0.01,0.573,0.103,1.156,0.499,1.768c-0.203-0.967-0.312-1.287,0.042-2.04   c-0.021,1.276,0.025,2.373,0.895,2.957c-0.518-1.219-0.792-2.039-0.157-3.479c0.026-0.057,0.05-0.112,0.069-0.166   c0.127,0.401,0.216,0.665,0.216,0.665c0.042,0.387,0.108,0.795,0.212,1.214c1.057,4.269,0.812,4.406,0.236,5.605   c0.816-1.28,0.854-1.748,1.031-2.569c-0.031,1.51-0.066,1.872-0.195,2.226c0.235-0.648,0.491-1.189,0.654-1.929   c0.149,0.457,0.348,0.941,0.592,1.461c1.661,3.474,0.785,3.598,0.377,5.033c-0.405,1.441-0.486,2.767,0.25,3.424   c-0.541-0.942-0.379-1.304-0.127-2.449c-0.081,0.56-0.037,0.603,0.554,2.162c-0.526-2.343,0.834-3.034,1.319-3.838   c-0.285,6.357-0.311,15.316-0.312,17.087l-1.743,0.006l0,0L28.659,92.296z M66.601,79.72c0.917,2.069,2.486,10.757,2.81,12.583   h-6.833c0-0.141,0.001-0.36,0.002-0.667c0-0.022,0-0.048,0-0.072c0-0.096,0-0.2,0.001-0.311c0-0.048,0-0.099,0-0.15   c0.001-0.088,0.001-0.182,0.001-0.277c0.007-1.59,0.026-4.172,0.071-7.023c0.001-0.076,0.002-0.149,0.004-0.226   c0.005-0.222,0.008-0.445,0.012-0.669c0.002-0.085,0.003-0.171,0.005-0.257c0.004-0.185,0.007-0.37,0.011-0.557   c0.004-0.136,0.005-0.272,0.008-0.408c0.005-0.172,0.008-0.342,0.011-0.514c0.004-0.145,0.006-0.291,0.01-0.435   c0.004-0.162,0.008-0.324,0.013-0.485c0.003-0.168,0.006-0.337,0.012-0.504c0.003-0.124,0.007-0.248,0.01-0.371   c0.004-0.199,0.01-0.399,0.016-0.599c0.004-0.125,0.008-0.251,0.011-0.377c0.007-0.182,0.012-0.362,0.018-0.543   c0.003-0.135,0.008-0.269,0.012-0.403c0.007-0.178,0.012-0.354,0.019-0.533c0.004-0.126,0.008-0.252,0.013-0.377   c0.007-0.181,0.015-0.361,0.021-0.54c0.005-0.115,0.01-0.229,0.013-0.342c0.009-0.18,0.018-0.357,0.024-0.533   c0.004-0.118,0.011-0.235,0.016-0.351c0.007-0.166,0.017-0.33,0.023-0.492c0.007-0.11,0.012-0.22,0.017-0.327   c0.009-0.165,0.019-0.325,0.026-0.482c0.007-0.108,0.013-0.214,0.02-0.318c0.009-0.149,0.018-0.294,0.026-0.439   c0.002-0.004,0.002-0.009,0.002-0.012c0.013,0.977,0.236,1.341,0.236,1.341s-0.179-0.708,0.396-2.278   c0.576-1.571,0.018-2.261-0.032-4.448c0.679,0.873,0.948,1.959,0.663,4.195c-0.286,2.237,0.405,3.493,0.784,4.345   c0.371,0.85,0.314,1.342-0.042,2.644c0.212-0.316,0.82-1.054,0.257-2.805c-0.56-1.75-0.567-2.885-0.021-4.301   c-0.267,0.956-0.169,2.273,0.164,3.125c-0.408-1.236,0.057-2.602,0.463-3.608c-0.002,0.383,0,0.76,0.004,1.131   c-0.068,0.189-0.136,0.38-0.206,0.578c0.078-0.101,0.139-0.199,0.207-0.3C65.926,75.791,66.111,78.613,66.601,79.72z M66.178,59.11   c-0.085,2.412-0.181,5.104-0.238,7.738c-0.241-0.436-0.444-0.696-0.444-0.696s-1.875-3.434-0.549-5.035   c1.329-1.596,0.055-5.128,0.055-5.128c0.376,0.348,0.692,0.381,0.799,0.381l-0.041-0.109c-0.297-0.354-0.411-1.066-0.467-1.531   c0.071-0.05,0.132-0.097,0.209-0.147c0.501,1.328,0.737,2.799,0.681,4.387L66.178,59.11z M73.356,47.345   c-0.063,0.051-0.118,0.116-0.195,0.155c-0.153,0.076-0.254,0.133-0.321,0.183c-0.058,0.003-0.131,0.009-0.228,0.021   c-0.037,0.005-0.066,0.005-0.085,0.005c-0.021,0-0.031,0-0.032,0c-0.007-0.014-0.018-0.057-0.013-0.147   c0.003-0.011,0.026-0.119,0.272-0.423c0.005-0.009,0.013-0.018,0.019-0.027c0.013-0.016,0.026-0.032,0.041-0.049   c0.093-0.112,0.221-0.259,0.579-0.447L73.356,47.345z M73.546,43.687c-0.241,0.097-0.47,0.203-0.676,0.338   c-0.29,0.196-0.625,0.294-1.082,0.419c-0.37,0.106-0.386,0.07-0.432-0.041c-0.036-0.091-0.05-0.125,0.298-0.306   c0.263-0.144,0.524-0.295,0.784-0.448c0.385-0.225,0.762-0.435,1.144-0.628L73.546,43.687z M73.748,39.852   c-0.952,0.14-1.914,0.418-2.787,1.111c-0.232,0.18-0.498,0.323-0.78,0.475l-0.249,0.137c0.164-0.187,0.324-0.386,0.482-0.585   c0.376-0.474,0.733-0.923,1.179-1.202l0.638-0.401c0.517-0.327,1.048-0.651,1.592-0.959L73.748,39.852z M74.922,37.224   c-1.069,0.458-2.05,1.078-2.998,1.677L71.288,39.3c-0.529,0.333-0.935,0.84-1.324,1.333c-0.159,0.199-0.315,0.396-0.482,0.584   c-0.196,0.225-0.186,0.56,0.023,0.808c0.17,0.212,0.404,0.229,0.738,0.032l0.209-0.113c0.291-0.156,0.592-0.318,0.863-0.529   c0.974-0.774,2.104-0.978,3.188-1.078c0.084,0.041,0.266,0.226,0.3,0.318c0.046,0.133,0.078,0.275-0.008,0.664   c-0.086,0.365-0.382,0.652-0.516,0.766c-0.763,0.271-1.457,0.676-2.129,1.068c-0.256,0.149-0.512,0.299-0.797,0.454   c-0.232,0.121-0.775,0.402-0.528,1.013c0.257,0.622,0.839,0.456,1.158,0.364c0.364-0.097,0.815-0.219,1.203-0.48   c0.386-0.25,0.837-0.421,1.418-0.534c0.138,0.064,0.315,0.205,0.346,0.271c0.048,0.123,0.079,0.255-0.012,0.657   c-0.098,0.442-0.519,0.691-0.549,0.708c-1.512,0.484-1.803,0.834-2.015,1.09l-0.07,0.079c-0.001,0-0.001,0-0.001,0   c-0.019,0.02-0.033,0.042-0.047,0.066c-0.233,0.3-0.341,0.515-0.347,0.689c-0.006,0.099-0.021,0.401,0.188,0.596   c0.139,0.13,0.332,0.18,0.584,0.146c0.122-0.014,0.204-0.019,0.292-0.023c0.1-0.005,0.152-0.011,0.199-0.1   c0.001-0.001,0.049-0.04,0.246-0.138c0.229-0.118,0.412-0.262,0.574-0.451c0.283-0.323,0.59-0.442,0.872-0.454   c0.012,0.046-0.027,0.195-0.05,0.284c-0.047,0.182-0.1,0.386-0.06,0.584c-0.104,0.376-0.318,0.673-0.709,0.978   c-0.413,0.32-0.588,0.493-0.706,0.607c-0.162,0.158-0.162,0.158-0.936,0.461l-0.16,0.061c-0.421,0.16-0.855,0.326-1.223,0.637   c-1.406,1.184-3.048,2.145-5.017,2.936c-0.3,0.12-0.552,0.278-0.821,0.446c-0.469,0.294-0.852,0.6-1.177,0.938   c-0.094,0.103-0.186,0.206-0.274,0.305c-0.321,0.356-1.204,1.316-2.438,2.57c0,0.002,0,0.002,0,0.002   c-0.042,0.034-0.224,0.19-0.474,0.374c-1.565-0.507-4.38-1.823-4.157-4.641c1.022-0.779,1.898-1.455,2.484-1.908   c0.418-0.323,0.688-0.532,0.766-0.587c0.571-0.417,1.882-2.211,2.041-2.43c0.014-0.015,0.025-0.03,0.036-0.047   c0.056-0.086,0.099-0.199,0.172-0.384l0.029-0.077c0.432-1.116,0.535-2.345,0.327-3.867c-0.047-0.353,0.019-0.696,0.211-1.115   l0.058-0.136c0.653-1.462,1.105-2.982,1.344-4.52c0.04-0.018,0.059-0.046,0.091-0.067c0.039-0.026,0.078-0.05,0.108-0.08   c0.044-0.045,0.077-0.093,0.105-0.146c0.017-0.033,0.038-0.062,0.048-0.095c0.021-0.061,0.033-0.12,0.038-0.18   c0.004-0.027,0.013-0.052,0.014-0.078c0.005-0.08,0.003-0.155,0.001-0.215c-0.002-0.058-0.006-0.113,0-0.166   c0.014-0.157,0.005-0.308-0.017-0.453c-0.008-0.044-0.021-0.086-0.031-0.129c-0.023-0.098-0.051-0.193-0.09-0.284   c-0.01-0.021-0.012-0.045-0.021-0.065c0.113,0.043,0.224,0.121,0.339,0.234c0.294,0.291,0.501,0.634,0.633,1.048l0,0   c0.105,0.327,0.164,0.705,0.181,1.152c0.02,0.573-0.078,1.13-0.181,1.719l-0.06,0.343c-0.036,0.2-0.083,0.45,0.01,0.762   c0.03,0.099,0.11,0.175,0.211,0.198c0.103,0.024,0.207-0.01,0.275-0.085c0.459-0.498,0.999-0.915,1.522-1.319   c0.522-0.404,1.062-0.822,1.528-1.322c0.96-1.034,2.172-1.82,3.812-2.475c0.26-0.102,0.515-0.219,0.768-0.337   c0.265-0.122,0.522-0.242,0.782-0.342c0.004,0.076,0.024,0.156,0.061,0.239c0.075,0.183,0.28,0.667,0.753,0.746   C74.984,37.198,74.952,37.211,74.922,37.224z M75.267,36.604c-0.181,0.044-0.302,0.008-0.467-0.37   c0.019-0.006,0.038-0.013,0.055-0.018c0.077-0.023,0.153-0.049,0.212-0.08c0.103-0.054,0.178-0.126,0.24-0.211   c0.08,0.012,0.163-0.002,0.229-0.058c0.008-0.005,0.157-0.122,0.519-0.097c0.069,0.005,0.092,0.032,0.108,0.076   c0.039,0.11,0,0.333-0.165,0.551l-0.233,0.069C75.602,36.514,75.439,36.563,75.267,36.604z" fill="#3498DB" style="fill: rgb(52, 152, 219);"></path></g></g></svg>